<svg xmlns="http://www.w3.org/2000/svg" viewBox="0 0 235 30" role="img" aria-labelledby="bonnard-lawson-title">
  <title id="bonnard-lawson-title">Bonnard Lawson</title>
  <path fill="#5f6870" d="M8.4 21.4H3.5v4.9h5c1.4 0 2.7-.5 2.7-2.4s-1-2.5-2.8-2.5Zm-4.9-7.5v4.2h5c1.2 0 2.2-.8 2.2-2.1s-.8-2.1-2.2-2.1h-5ZM9 29.5H0V10.7h8.5c3.7 0 5.6 2 5.6 5.1s-.7 2.9-1.8 3.7c1.6.8 2.5 2.4 2.5 4.5 0 3.4-2.2 5.5-5.8 5.5ZM31.1 20c0-3.5-2.5-6.4-5.5-6.4s-5.5 2.9-5.5 6.4 2.5 6.4 5.5 6.4 5.5-2.9 5.5-6.4Zm3.5 0c0 5.5-3.8 9.8-9 9.8s-9.1-4.3-9.1-9.8 3.8-9.8 9.1-9.8 9 4.3 9 9.8ZM52.5 29.5h-4.2l-7.5-13.4v13.4h-3.5V10.7h4.2L49 24.1V10.7h3.5v18.9ZM71.2 29.5H67l-7.5-13.4v13.4H56V10.7h4.2l7.5 13.4V10.7h3.5v18.9ZM81.7 14.7l-2.6 7.7h5.2l-2.6-7.7Zm-3.7 11-1.3 3.8H73l6.4-18.9h4.4l6.4 18.9h-3.7l-1.3-3.8h-7.4ZM100.9 19c.5 0 2.7-.2 2.7-2.5s0-2.5-2.8-2.5h-4.9v5h5Zm6.1 10.5h-3.6c-.2-.5-.4-1.2-.4-2.1v-2.9c0-1.6-.8-2.3-2.4-2.3h-4.8v7.3h-3.5V10.7h8.4c3.9 0 6.3 2.1 6.3 5.6s-1 3.5-2.6 4.3c1.3.7 2 2 2 4v2.6c0 .7.2 1.7.4 2.3ZM116.9 14h-3.3v12.2h3.3c4.2 0 4.8-3.8 4.8-6.1s-.9-6.1-4.8-6.1Zm0 15.5h-6.8V10.7h6.8c5.1 0 8.3 3.6 8.3 9.4s-3.3 9.4-8.3 9.4ZM140.8 18h-9.4V.7h-1.7v18.9H142c0-.2 2.3-5.5 2.3-5.5h8.3s2.1 5.3 2.2 5.5h1.9c-.2-.5-7.9-18.8-8.2-19.5-.3.6-5.7 13.3-7.7 17.9Zm4.1-5.6 3.5-8.3 3.4 8.3h-6.9ZM180.7.7c0 .2-6.4 14.8-6.4 14.8S168.5.8 168.2 0c-.3.8-6.1 15.5-6.1 15.5S155.9 1 155.9.7H154c.2.5 7.9 18.7 8.2 19.6.3-.8 6.1-15.5 6.1-15.5s5.8 14.7 6.1 15.5c.3-.8 8.1-19.1 8.3-19.6h-1.9ZM22.8.7V7h.6V.7h-.6ZM32.5 6V.7h.6V7h-.8l-3.7-5.4V7H28V.7h.8L32.5 6ZM39.7 7h-.6V1.3H37V.7h4.7v.6h-2.1V7ZM46.3 6.4h3.3V7h-3.9V.7h3.8v.6h-3.2v2.1h3V4h-3v2.4ZM54.4 3.5h1.1c1.1 0 1.5-.5 1.5-1.1s-.4-1.1-1.5-1.1h-1.1v2.2Zm0 3.5h-.6V.7h1.9c1.2 0 2 .5 2 1.7s-.6 1.5-1.6 1.6l1.8 3h-.8l-1.7-2.9h-1V7ZM66.3 6V.7h.6V7h-.8l-3.7-5.4V7h-.6V.7h.8L66.3 6ZM72.3 4.7H75l-1.3-3.3-1.3 3.3ZM71.4 7h-.7L73.4.7h.6L76.7 7H76l-.7-1.6h-3.1L71.5 7ZM81.8 7h-.6V1.3h-2.1V.7h4.7v.6h-2.1V7ZM88.3.7h-.6V7h.6V.7ZM95.7 1.3c-1.6 0-2.5 1.3-2.5 2.7s.9 2.7 2.5 2.7 2.5-1.3 2.5-2.7-.9-2.7-2.5-2.7Zm0 6c-1.8 0-3.2-1.4-3.2-3.3S93.9.7 95.7.7s3.2 1.4 3.2 3.3-1.4 3.3-3.2 3.3ZM107.6 6V.7h.6V7h-.8l-3.7-5.4V7h-.6V.7h.8l3.7 5.3ZM113.6 4.7h2.7L115 1.4l-1.3 3.3Zm-.9 2.3h-.7l2.7-6.3h.6L118 7h-.7l-.7-1.6h-3.1l-.7 1.6ZM122.3 6.4h2.9V7h-3.5V.7h.6v5.7ZM185.8 7h-.6V.7h3.7v.6h-3.1v2.1h2.9V4h-2.9v3ZM193 .7V7h.6V.7h-.6ZM198.8 3.5h1.1c1.1 0 1.5-.5 1.5-1.1 0-.6-.4-1.1-1.5-1.1h-1.1v2.2Zm0 3.5h-.6V.7h1.9c1.2 0 2 .6 2 1.7s-.6 1.5-1.6 1.6l1.8 3h-.8l-1.7-2.9h-1V7ZM209.3 5.8l2.1-5.1h1V7h-.6V1.6L209.6 7h-.3l-2.2-5.4V7h-.6V.7h1l2.1 5.1ZM185.4 28.8c-1.5-1-2.3-2.4-2.6-4.1l2-1.1c0 .9.1 1.6.4 2.3.8 1.7 2.8 2.4 4.7 2.4 3.6 0 5.2-2 5.2-3.9 0-1.3-.6-2.1-1.1-2.5-.8-.7-1.9-1-4.4-1.6-2.7-.7-5.8-1.7-5.8-5.2 0-3.8 3.4-5 6.4-5 4.9 0 6.2 3.1 6.6 4.2l-1.7 1c-.2-.5-.4-1.1-.8-1.6-.9-1.3-2.4-1.9-4.1-1.9-2 0-4.4.8-4.4 3.3 0 2.2 2.1 2.9 3.2 3.2.5.2 3.3.8 3.9 1.1 1 .3 4.5 1.4 4.5 5 0 2.7-2.3 5.7-7.2 5.7-2 0-3.5-.5-4.5-1.2M208.2 28.3c-4.9 0-6.3-4.8-6.3-8.2s1.5-8.3 6.3-8.3 6.2 4.8 6.2 8.2c0 1.5-.4 8.3-6.3 8.3m.2-18.1c-5.7 0-8.3 4.7-8.3 9.9 0 3.3 1.1 5.8 2.4 7.4 1.6 1.8 3.5 2.6 5.9 2.6 1.6 0 3.9-.3 5.8-2.5 1.6-1.8 2.4-4.7 2.4-7.6 0-4.3-1.9-9.8-8.2-9.8M233.1 29.5l-11.1-16v16h-1.9V10.6h1.9l11.2 15.8-.2-15.8h2v18.9h-1.9Z"/>
</svg>
