      <svg viewBox="-0.5 -0.5 168 39" fill="#A36F25" xmlns="http://www.w3.org/2000/svg">
        <path d="M7.59169 10.7728C8.23512 10.071 8.9477 9.43329 9.71905 8.8688C9.20024 10.4251 8.796 12.0158 8.50945 13.6287C8.50945 13.6287 9.47329 13.2524 9.81505 13.1358C10.1907 11.2785 10.7263 9.45583 11.4163 7.6873L11.9962 6.29132L10.6138 6.93851C9.1542 7.70798 7.84715 8.72749 6.75457 9.94871C4.98433 11.8677 2.82241 15.2166 2.57281 20.2549C2.84161 19.9162 3.72481 18.7084 3.95521 18.4525C4.36865 15.5974 5.63377 12.9257 7.59169 10.7728Z"/>
        <path d="M36 9.54233L33.001 2.72047L35.1782 0.888009L34.4102 0L32.1062 1.9491L30.9005 0.959502L28.8806 3.24725L29.2762 4.30835L29.015 4.52659C28.7228 3.35941 28.0634 2.31179 27.1303 1.53192C26.1971 0.752044 25.0373 0.279382 23.815 0.180783C22.5927 0.0821835 21.3696 0.362638 20.3188 0.982479C19.2681 1.60232 18.4428 2.53018 17.9597 3.63482C17.9517 3.64915 17.9452 3.66429 17.9405 3.67997L20.3174 4.95178C20.7327 4.30863 21.3186 3.78816 22.0124 3.44604C22.7063 3.10392 23.4819 2.95301 24.2565 3.00943C25.0311 3.06585 25.7755 3.32749 26.41 3.76638C27.0446 4.20526 27.5455 4.80488 27.8592 5.50114L26.9606 6.25369C26.9263 6.16004 26.8839 6.06941 26.8339 5.98277C26.4719 5.28861 25.8616 4.74939 25.1197 4.46805C24.3777 4.18672 23.556 4.18296 22.8114 4.4575C22.0668 4.73204 21.4515 5.26565 21.0828 5.95647C20.7142 6.64729 20.618 7.44695 20.8128 8.20279H20.1062L20.9971 9.9186L23.401 8.71453L24.7219 11.2506L25.417 9.40311L24.745 8.11625L22.057 8.16893C22.0378 8.11249 22.0147 8.05981 21.9994 8.00337C21.9128 7.72233 21.8905 7.42608 21.9338 7.13562C21.9772 6.84516 22.0852 6.5676 22.2502 6.3226C22.4152 6.0776 22.6332 5.87117 22.8887 5.71792C23.1442 5.56467 23.431 5.46837 23.7287 5.43583C24.0265 5.40329 24.3279 5.43531 24.6115 5.52962C24.8952 5.62394 25.1543 5.77824 25.3703 5.98158C25.5864 6.18493 25.7542 6.43236 25.8618 6.70632C25.9694 6.98028 26.0141 7.27407 25.993 7.56689L25.6973 8.59412L27.7018 9.15101L28.0243 8.02218L27.168 7.78513C27.168 7.72492 27.168 7.66096 27.168 7.60075L29.737 5.44094L29.8598 5.74572L30.601 5.83979L31.0541 8.47371L29.2339 9.6665L27.1834 9.8584L20.0755 15.1676L20.0218 13.6362L22.0301 11.943L21.4733 10.8706L19.968 12.1386L19.9219 10.9496L18.4704 11.4952C18.035 11.6572 17.6575 11.9405 17.3845 12.3103C17.1116 12.6801 16.9551 13.1201 16.9344 13.576L16.8845 14.7274L8.87424 21.4702C8.78197 21.2745 8.73164 21.0624 8.72635 20.8469C8.72107 20.6313 8.76094 20.4171 8.84352 20.2172C8.95821 19.9062 9.14529 19.6255 9.3899 19.3976C9.63452 19.1696 9.92996 19.0007 10.2528 18.9041L10.4602 18.8739L10.5792 18.7272C12.1728 16.7856 10.5101 14.3361 10.4371 14.2307L10.1914 13.877L9.7728 14.0012C9.62688 14.0426 8.34432 14.4301 7.73376 14.9795C7.46351 15.2925 7.24339 15.6439 7.08096 16.0218C6.92583 16.3487 6.7448 16.6632 6.53952 16.9625L6.35904 17.1167C5.17632 18.1364 3.80544 19.4609 3.744 20.65C3.67104 22.0234 1.88544 24.3713 1.20192 25.1653L0 26.5537L3.17568 25.7748C2.97049 27.3591 3.13998 28.9684 3.67104 30.4783L4.0128 31.4566L4.70016 30.6514C4.92266 30.3948 5.18124 30.1706 5.46816 29.9853C5.66307 31.3075 6.15488 32.5707 6.90816 33.6841L7.53408 34.5759L7.95264 33.575C8.07209 33.2974 8.22692 33.0357 8.41344 32.7961C8.8752 34.0105 9.60262 35.1112 10.5446 36.0208L11.3395 36.7733L11.543 35.7122C11.605 35.4001 11.7096 35.0977 11.8541 34.813C12.6132 35.8964 13.6071 36.8022 14.7648 37.4657L15.7248 38L15.6557 36.9201C15.6355 36.5889 15.6432 36.2567 15.6787 35.9267C16.6982 36.7087 17.8765 37.2681 19.1347 37.5673L20.2099 37.8081L19.8259 36.7959C19.6694 36.3881 19.5888 35.9561 19.5878 35.5203C27.0029 34.8506 30.6086 29.5451 31.5533 27.9045C35.5085 21.0262 32.5632 14.6183 31.9642 13.4594L36 9.54233ZM18.1402 13.6324C18.1476 13.4246 18.2122 13.2226 18.3271 13.0478C18.442 12.8729 18.603 12.7317 18.793 12.6391L18.9696 17.4742L27.6403 10.9948L29.6525 10.8066L32.3635 9.02684L31.6378 4.80879L30.7162 4.69215L30.2246 3.47678L30.9926 2.5963L31.1462 2.72423L30.9888 2.85216C30.6048 3.17576 31.3728 4.08258 31.7568 3.74017L32.0218 3.51817L34.5523 9.27141L31.3421 12.3907L30.816 11.4538L30.7277 13.5384C30.7277 13.6023 30.4166 19.5099 25.079 21.9067C24.9097 21.7014 24.7207 21.5124 24.5146 21.3423L23.5162 16.7518L19.1462 19.4609L18.2938 18.8438C18.1825 18.7637 18.0932 18.6579 18.0336 18.5358C17.974 18.4137 17.9459 18.2792 17.952 18.144L18.1402 13.6324ZM23.1322 20.5484C22.0999 20.2272 21.0033 20.1574 19.9373 20.3452L22.7021 18.6331L23.1322 20.5484ZM17.568 19.7958L18.72 20.6236L18.4781 20.7026L17.8406 20.9322L18.1555 21.5229C18.1555 21.553 19.6915 24.4804 18.7968 26.4145C18.0019 28.104 16.2125 28.3561 15.2218 28.3561C14.7136 28.3738 14.2078 28.2787 13.7424 28.0781C13.2769 27.8774 12.8638 27.5763 12.5338 27.1971C12.3082 26.9325 12.1384 26.6266 12.0342 26.2972C11.9301 25.9678 11.8937 25.6214 11.927 25.2781C11.947 25.1926 11.9821 25.1111 12.0307 25.0373C12.6973 24.5903 13.5045 24.3902 14.3078 24.4729L14.7418 24.5519L14.9453 24.1757C15.6403 22.87 14.7533 21.4514 14.7149 21.3912L14.4576 20.9886L14.0006 21.1504C13.9776 21.1504 11.447 22.0723 10.6714 22.3131C10.3828 22.4 10.0727 22.3881 9.792 22.2792L16.8192 16.3642L16.7424 18.1252C16.7337 18.4481 16.8054 18.7683 16.9512 19.0581C17.0971 19.3478 17.3127 19.5985 17.5795 19.7883L17.568 19.7958ZM30.5088 27.3213C29.6179 28.8716 26.1581 33.955 18.9888 34.384L18.5357 34.4103L18.4397 34.8431C18.3673 35.2691 18.3673 35.7039 18.4397 36.1299C17.4214 35.7379 16.4932 35.1508 15.7094 34.4028L15.0106 33.6766L14.7034 34.6286C14.5872 35.032 14.51 35.4452 14.473 35.8628C13.6302 35.2041 12.9259 34.3914 12.3994 33.4696L12.0154 32.7397L11.4278 33.3154C11.1163 33.6485 10.8632 34.0299 10.679 34.4442C10.0131 33.5919 9.52631 32.6186 9.24672 31.5808L9.0624 30.7454L8.3328 31.2158C7.95917 31.4805 7.63229 31.8033 7.36512 32.1715C6.88811 31.2048 6.61266 30.1546 6.55488 29.0823V28.3297L5.78688 28.5329C5.32766 28.6825 4.89783 28.9078 4.51584 29.1989C4.17552 27.8685 4.1663 26.4774 4.48896 25.1427L4.8 24.1493L3.16416 24.5482C3.93216 23.457 4.86528 21.9142 4.93056 20.6951C4.93056 20.3188 5.34912 19.5211 7.1424 17.9822L7.3536 17.7978C7.6704 17.4176 7.92911 16.9942 8.1216 16.541C8.24439 16.2935 8.38025 16.0523 8.52864 15.8186C8.86959 15.5758 9.24643 15.3854 9.64608 15.2542C9.93408 15.8299 10.3373 16.9437 9.72672 17.843C9.26518 18.0095 8.84615 18.2725 8.49869 18.6136C8.15123 18.9547 7.88367 19.3658 7.71456 19.8184C7.55247 20.2224 7.49225 20.6588 7.53905 21.0905C7.58585 21.5222 7.73827 21.9364 7.98336 22.2981L8.47488 21.9669L7.98336 22.3018C8.03328 22.3695 9.18912 23.9574 11.0131 23.4005C11.6045 23.2199 13.0906 22.6931 13.8854 22.4072C13.99 22.6782 14.0256 22.97 13.9891 23.2575H13.9584C13.0306 23.2713 12.1261 23.5441 11.351 24.044C11.0989 24.226 10.9142 24.4836 10.825 24.7777H10.7827C10.7827 24.868 10.752 24.9583 10.7405 25.0486C10.6833 25.2611 10.6423 25.4774 10.6176 25.6958L9.26208 24.7401L7.77216 26.0232L5.9904 25.1352L7.38816 27.9045L9.34656 26.2188L11.4317 27.6825C11.4893 27.7616 11.5469 27.8368 11.6083 27.9121C12.0523 28.4233 12.607 28.8311 13.2321 29.1058C13.8572 29.3805 14.5369 29.5151 15.2218 29.5C17.3952 29.5 19.0963 28.5442 19.8835 26.866C20.7475 25.0373 19.9872 22.727 19.4995 21.5982C20.6515 21.3348 23.1437 21.0451 24.3725 22.9227L24.6413 23.3328L25.0982 23.1522C29.3914 21.5079 30.9965 17.9746 31.5802 15.6982C32.2385 17.6018 32.4843 19.6192 32.3018 21.6212C32.1193 23.6232 31.5126 25.5659 30.5203 27.3251L30.5088 27.3213Z"/>
        <path d="M65.1124 22.4012C64.5107 24.0385 63.4014 25.4554 61.9364 26.4578C60.4714 27.4601 58.7225 27.9988 56.9293 28C51.9231 28 48 24.1275 48 19C48 13.8725 51.899 10 56.9293 10C58.727 9.99919 60.4804 10.5404 61.9466 11.5485C63.4128 12.5567 64.5192 13.9819 65.1124 15.6267L63.2544 16.2519C62.7993 14.9685 61.9448 13.8534 60.8085 13.0604C59.6722 12.2674 58.3102 11.8355 56.91 11.8243C53.011 11.8243 50.0217 14.9269 50.0217 19C50.0217 23.0731 53.011 26.1711 56.91 26.1711C58.3094 26.1595 59.6707 25.728 60.8068 24.936C61.9429 24.1439 62.7979 23.0303 63.2544 21.7481L65.1124 22.4012Z"/>
        <path d="M76.6411 10.2473L84.4825 27.7527H82.3693L80.6701 23.9502H70.4267L68.7515 27.7527H66.6335L74.4509 10.2473H76.6411ZM71.2257 22.126H79.8903L75.558 12.3748L71.2257 22.126Z"/>
        <path d="M87.7076 10.2473H94.5189C99.9101 10.2473 102.928 13.9518 102.928 19C102.928 24.0482 99.8861 27.7527 94.5189 27.7527H87.7076V10.2473ZM89.6716 12.0762V25.9238H94.3648C98.7501 25.9238 100.916 23.0264 100.916 19C100.916 14.9736 98.7741 12.0762 94.3648 12.0762H89.6716Z"/>
        <path d="M107.366 27.7527V10.2473H109.326L116.498 22.5739L123.694 10.2473H125.653V27.7527H123.694V13.9238L117.321 24.8507H115.699L109.326 13.9238V27.7527H107.366Z"/>
        <path d="M139.045 10C144.152 10 148.046 13.8725 148.046 19C148.046 24.1275 144.152 28 139.045 28C133.938 28 130.015 24.1275 130.015 19C130.015 13.8725 133.909 10 139.045 10ZM139.045 26.1757C142.992 26.1757 146.01 23.0778 146.01 19C146.01 14.9222 142.992 11.8243 139.045 11.8243C135.098 11.8243 132.051 14.9269 132.051 19C132.051 23.0731 135.064 26.1711 139.045 26.1711V26.1757Z"/>
        <path d="M153.154 22.8771C153.438 25.1773 155.503 26.2271 158.367 26.2271C161.231 26.2271 163.007 25.1026 163.007 23.353C163.007 21.2022 160.427 20.6236 157.645 19.8491C154.728 19.0233 151.387 18.0249 151.387 14.6003C151.387 11.8009 153.837 10 157.755 10C161.578 10 164.495 11.6983 164.495 15.0249V15.3002H162.569V15.1742C162.569 12.8974 160.557 11.8009 157.717 11.8009C154.959 11.8009 153.409 12.8974 153.409 14.6516C153.409 16.7232 155.604 17.3484 158.261 18.0995C161.895 19.126 165 20.0498 165 23.325C165 26.3017 162.42 27.9907 158.295 27.9907C154.444 27.9907 151.589 26.4183 151.199 23.3904L153.154 22.8771Z"/>
      </svg>
