<svg xmlns="http://www.w3.org/2000/svg" xmlns:xlink="http://www.w3.org/1999/xlink" viewBox="0 0 313.87 104.81">
  <defs>
    <style>
      .cls-1 {
        fill: #021648;
      }

      .cls-2, .cls-4, .cls-5 {
        opacity: 0.8;
      }

      .cls-2 {
        fill: url(#linear-gradient);
      }

      .cls-3 {
        fill: url(#linear-gradient-2);
      }

      .cls-4 {
        fill: url(#linear-gradient-3);
      }

      .cls-5 {
        fill: url(#linear-gradient-4);
      }

      .cls-6 {
        fill: #fff;
      }
    </style>
    <linearGradient id="linear-gradient" y1="36.21" x2="72.43" y2="36.21" gradientUnits="userSpaceOnUse">
      <stop offset="0" stop-color="#e21a2b"/>
      <stop offset="1" stop-color="#fff"/>
    </linearGradient>
    <linearGradient id="linear-gradient-2" x1="-5184.22" y1="3744.62" x2="-5111.79" y2="3744.62" gradientTransform="translate(-5111.74 3813.22) rotate(180)" gradientUnits="userSpaceOnUse">
      <stop offset="0" stop-color="#e21a2b"/>
      <stop offset="1" stop-color="#fff" stop-opacity="0.6"/>
    </linearGradient>
    <linearGradient id="linear-gradient-3" y1="36.21" x2="36.21" y2="36.21" gradientUnits="userSpaceOnUse">
      <stop offset="0" stop-color="#e21a2b"/>
      <stop offset="1" stop-color="#fff" stop-opacity="0"/>
    </linearGradient>
    <linearGradient id="linear-gradient-4" x1="-5390.82" y1="3742.05" x2="-5354.61" y2="3742.05" gradientTransform="translate(-5318.34 3810.65) rotate(180)" gradientUnits="userSpaceOnUse">
      <stop offset="0" stop-color="#e1282b"/>
      <stop offset="1" stop-color="#fff" stop-opacity="0"/>
    </linearGradient>
  </defs>
  <title>SO-FIT</title>
  <g id="Layer_2" data-name="Layer 2">
    <g id="Layer_1-2" data-name="Layer 1">
      <g>
        <g>
          <path class="cls-1" d="M96.46,64.76h9.92a8,8,0,0,0,2.14,5.57,7.87,7.87,0,0,0,5.69,1.91,6.93,6.93,0,0,0,4.8-1.56,5.21,5.21,0,0,0,1.74-4.06,5.08,5.08,0,0,0-2.06-4.12,22.45,22.45,0,0,0-6.78-3.21q-7.22-2.32-10.77-5.8t-3.57-9.41a14.32,14.32,0,0,1,4.25-10.76q4.25-4.12,11.52-4.12T124.63,33q4.16,3.8,4.47,11.1h-9.92a6.44,6.44,0,0,0-1.77-4.56,5.87,5.87,0,0,0-4.28-1.63A5.81,5.81,0,0,0,109,39.29a5.06,5.06,0,0,0-1.5,3.92,5.55,5.55,0,0,0,.47,2.38,4.63,4.63,0,0,0,1.71,1.82,15.71,15.71,0,0,0,2.61,1.43c.91.39,2.24.89,4,1.49q7.86,2.64,11.13,6.2a13.09,13.09,0,0,1,3.27,9.22q0,7.05-4.68,11.12a17.46,17.46,0,0,1-11.91,4.07q-8.32,0-12.86-4.42T96.46,64.76Z"/>
          <path class="cls-1" d="M135.64,55a27.59,27.59,0,0,1,1.91-10.31,23.64,23.64,0,0,1,13.52-13.54,27.52,27.52,0,0,1,10.42-1.95,26.76,26.76,0,0,1,13.35,3.32A23.63,23.63,0,0,1,184,41.73,26.68,26.68,0,0,1,187.31,55,26.84,26.84,0,0,1,184,68.32a23.78,23.78,0,0,1-9.18,9.27,28.36,28.36,0,0,1-26.74,0,23.61,23.61,0,0,1-9.19-9.27A27,27,0,0,1,135.64,55Zm10.2,0a17.17,17.17,0,0,0,4.31,12.08,15.95,15.95,0,0,0,22.65,0A17.18,17.18,0,0,0,177.12,55a17,17,0,0,0-4.32-12,16,16,0,0,0-22.65,0A17,17,0,0,0,145.84,55Z"/>
          <path class="cls-1" d="M191.7,65.6V57.21h22.44V65.6Z"/>
          <path class="cls-1" d="M221,80V30.1h28.29v9.16H230.74v11.2H246.5v9.15H230.74V80Z"/>
          <path class="cls-1" d="M256,80V30.1h9.78V80Z"/>
          <path class="cls-1" d="M271.62,39.26V30.1h42.25v9.16H297.62V80h-9.78V39.26Z"/>
        </g>
        <g>
          <g>
            <circle class="cls-2" cx="36.21" cy="36.21" r="36.21"/>
            <g>
              <circle class="cls-3" cx="36.27" cy="68.6" r="36.21"/>
              <path class="cls-4" d="M36.21,72.43A36.22,36.22,0,0,1,36.21,0"/>
            </g>
          </g>
          <path class="cls-5" d="M36.27,32.38a36.22,36.22,0,0,1,0,72.43"/>
        </g>
        <g>
          <rect class="cls-6" x="28" y="50.12" width="16.48" height="4.58"/>
          <rect class="cls-6" x="28" y="50.12" width="16.48" height="4.58" transform="translate(88.65 16.16) rotate(90)"/>
        </g>
      </g>
    </g>
  </g>
</svg>
