<svg xmlns="http://www.w3.org/2000/svg" viewBox="0 0 1100 800"><defs><clipPath id="clippath"><path d="M428.19 156.3h275.49v491.71H428.19z" class="st0"/></clipPath><clipPath id="clippath-1"><path d="M303.16 55.02h580.19v695.1H303.16z" class="st0"/></clipPath><clipPath id="clippath-2"><path d="M303.16 55.02h580.19v695.1H303.16z" class="st0"/></clipPath><linearGradient id="Dégradé_sans_nom_2" x1="811.05" x2="315.24" y1="401.72" y2="401.72" data-name="Dégradé sans nom 2" gradientTransform="rotate(-180 563.145 401.725)" gradientUnits="userSpaceOnUse"><stop offset="0" stop-color="#fff"/><stop offset="0" stop-color="#fcfcfc"/><stop offset=".16" stop-color="#b9b9b8"/><stop offset=".31" stop-color="#818180"/><stop offset=".45" stop-color="#565654"/><stop offset=".57" stop-color="#363635"/><stop offset=".68" stop-color="#232321"/><stop offset=".75" stop-color="#1d1d1b"/><stop offset=".78" stop-color="#1d1d1b"/><stop offset="1" stop-color="#1d1d1b"/></linearGradient><style>.st0,.st4{fill:none}.st8,.st9{font-weight:700}.st9{font-family:Montserrat-ExtraBold,Montserrat}.st10{fill:#f9f5e5}.st12{fill:#8dcfe1}.st8{font-family:Montserrat-Bold,Montserrat;font-size:12.21px;fill:#19242b}.st16{fill:#619ead;font-family:Montserrat-Medium,Montserrat;font-size:12.65px;font-weight:500}.st4{stroke:#619ead}.st18{letter-spacing:0}.st12{font-family:Montserrat-SemiBold,Montserrat;font-size:15.08px;font-weight:600}.st4{stroke-width:2.11px}.st9{font-size:20.56px;fill:#f9f4e5}.st35{letter-spacing:-.02em}.st45,.st52,.st62,.st63,.st66,.st67{letter-spacing:0}.st70{letter-spacing:.01em}.st71,.st72{letter-spacing:0}.st74,.st75,.st77,.st78{letter-spacing:.01em}.st80,.st81,.st82,.st83,.st85,.st86,.st87,.st88,.st89,.st90{letter-spacing:0}</style></defs><g style="isolation:isolate"><g id="What_we_do_x5F_Graphique"><path d="M567.39 570.69c85.8 0 155.36-69.55 155.36-155.36s-69.56-155.35-155.36-155.35-155.36 69.55-155.36 155.35 69.55 155.36 155.36 155.36Z" class="st4"/><text class="st9" data-capability="origination" transform="translate(238.46 269.86)"><tspan x="0" y="0" class="st83">O</tspan><tspan x="17.58" y="0" class="st75">RIGI</tspan><tspan x="63.4" y="0" class="st83">N</tspan><tspan x="80.16" y="0" style="letter-spacing:-.02em">A</tspan><tspan x="95.83" y="0" class="st87">TI</tspan><tspan x="116.27" y="0" class="st83">O</tspan><tspan x="133.85" y="0">N</tspan></text><text class="st9" data-capability="rating" transform="translate(743.77 269.86)"><tspan x="0" y="0" class="st75">R</tspan><tspan x="15.42" y="0" class="st35">A</tspan><tspan x="31.09" y="0" class="st81">T</tspan><tspan x="44.33" y="0" class="st89">IN</tspan><tspan x="68.29" y="0">G</tspan></text><path d="M130.38 403.01H397c19.81 0 35.87-16.06 35.87-35.87V221.26m572.59 181.75H738.84c-19.81 0-35.87-16.06-35.87-35.87V221.26M129.46 424.39h266.62c19.81 0 35.87 16.06 35.87 35.87v115.99m574.43-151.86H739.76c-19.81 0-35.87 16.06-35.87 35.87v115.99" class="st4"/><text class="st12" transform="translate(193.9 296.83)"><tspan x="0" y="0" class="st74">I</tspan><tspan x="4.96" y="0" class="st82">ss</tspan><tspan x="20.76" y="0" class="st74">uer</tspan><tspan x="47.2" y="0" class="st86">s</tspan><tspan xml:space="preserve" x="55.1" y="0" class="st78"> a</tspan><tspan x="68.72" y="0">r</tspan><tspan x="75.05" y="0" class="st74">e sc</tspan><tspan x="105.72" y="0">r</tspan><tspan x="112.06" y="0" class="st74">eene</tspan><tspan x="151.13" y="0" class="st82">d</tspan><tspan xml:space="preserve" x="161.62" y="0" class="st74"> an</tspan><tspan x="185.72" y="0">d </tspan></text><text class="st12" transform="translate(162.28 314.93)"><tspan x="0" y="0" class="st74">a</tspan><tspan x="9.3" y="0" class="st82">ss</tspan><tspan x="25.11" y="0" class="st74">es</tspan><tspan x="42.56" y="0" class="st82">s</tspan><tspan x="50.46" y="0" class="st74">ed be</tspan><tspan x="94.84" y="0" style="letter-spacing:0">f</tspan><tspan x="100.43" y="0" class="st90">o</tspan><tspan x="110.31" y="0">r</tspan><tspan x="116.64" y="0" class="st74">e a</tspan><tspan x="139.79" y="0">n</tspan><tspan x="150.12" y="0" class="st74">y </tspan><tspan x="163.3" y="0" style="letter-spacing:0">e</tspan><tspan x="172.6" y="0" class="st74">x</tspan><tspan x="181.39" y="0" class="st52">t</tspan><tspan x="187.68" y="0" class="st74">e</tspan><tspan x="197.21" y="0" class="st66">r</tspan><tspan x="203.61" y="0" class="st74">na</tspan><tspan x="223.39" y="0">l </tspan></text><text class="st12" transform="translate(160.03 333.03)"><tspan x="0" y="0" style="letter-spacing:-.03em">r</tspan><tspan x="5.85" y="0" class="st74">ati</tspan><tspan x="26.21" y="0" style="letter-spacing:.01em">n</tspan><tspan x="36.7" y="0" class="st74">g or di</tspan><tspan x="87.33" y="0" class="st82">s</tspan><tspan x="95.23" y="0" class="st74">t</tspan><tspan x="101.77" y="0" class="st62">r</tspan><tspan x="108.18" y="0" class="st90">ibutio</tspan><tspan x="154.54" y="0" class="st82">n</tspan><tspan xml:space="preserve" x="165" y="0" class="st74"> p</tspan><tspan x="179.81" y="0">r</tspan><tspan x="186.14" y="0" class="st74">o</tspan><tspan x="196.02" y="0" style="letter-spacing:0">c</tspan><tspan x="204.8" y="0" class="st74">e</tspan><tspan x="214.33" y="0" class="st82">s</tspan><tspan x="222.23" y="0">s </tspan></text><text class="st12" transform="translate(332.85 351.13)"><tspan x="0" y="0" class="st74">begin</tspan><tspan x="45.63" y="0" class="st82">s</tspan><tspan x="53.53" y="0">.</tspan></text><text class="st12" transform="translate(741.68 296.83)"><tspan x="0" y="0" class="st63">E</tspan><tspan x="10.18" y="0" class="st78">a</tspan><tspan x="19.48" y="0" style="letter-spacing:0">c</tspan><tspan x="28.32" y="0" class="st82">h</tspan><tspan x="38.79" y="0" class="st90"> </tspan><tspan x="43.1" y="0">f</tspan><tspan x="48.66" y="0" style="letter-spacing:.01em">a</tspan><tspan x="57.98" y="0" class="st67">c</tspan><tspan x="66.8" y="0" class="st78">ili</tspan><tspan x="80.33" y="0">t</tspan><tspan x="86.72" y="0" class="st90">y i</tspan><tspan x="104.41" y="0" class="st71">s</tspan><tspan x="112.31" y="0" class="st90"> </tspan><tspan x="116.62" y="0" style="letter-spacing:-.03em">r</tspan><tspan x="122.48" y="0" class="st82">a</tspan><tspan x="131.76" y="0" style="letter-spacing:0">t</tspan><tspan x="138.04" y="0" class="st90">ed t</tspan><tspan x="168.94" y="0" class="st80">h</tspan><tspan x="179.4" y="0">r</tspan><tspan x="185.74" y="0" class="st90">oug</tspan><tspan x="216.65" y="0" class="st18">h </tspan></text><text class="st12" transform="translate(741.68 314.93)"><tspan x="0" y="0" class="st82">S</tspan><tspan x="9.62" y="0" class="st52">t</tspan><tspan x="15.91" y="0" class="st90">o</tspan><tspan x="25.79" y="0" style="letter-spacing:-.01em">k</tspan><tspan x="35.21" y="0" class="st90">e</tspan><tspan x="44.74" y="0" class="st82">n</tspan><tspan x="55.21" y="0" class="st90"> </tspan><tspan x="59.52" y="0" class="st82">s</tspan><tspan x="67.42" y="0" style="letter-spacing:0">c</tspan><tspan x="76.2" y="0" class="st90">o</tspan><tspan x="86.07" y="0" class="st66">r</tspan><tspan x="92.47" y="0" class="st90">ing, Mood</tspan><tspan x="171.03" y="0" style="letter-spacing:.02em">y</tspan><tspan x="180.11" y="0" style="letter-spacing:0">’</tspan><tspan x="183.7" y="0" class="st71">s</tspan><tspan xml:space="preserve" x="191.6" y="0" class="st90"> Ri</tspan><tspan x="211.6" y="0" class="st82">s</tspan><tspan x="219.5" y="0">k</tspan></text><text class="st12" transform="translate(970.63 314.93)"><tspan x="0" y="0">-</tspan></text><text class="st12" transform="translate(741.67 333.03)"><tspan x="0" y="0" class="st63">C</tspan><tspan x="11.04" y="0" class="st82">a</tspan><tspan x="20.33" y="0" class="st78">l</tspan><tspan x="24.84" y="0" style="letter-spacing:.03em">c</tspan><tspan x="34.05" y="0" class="st90">, or bot</tspan><tspan x="89.78" y="0" class="st82">h</tspan><tspan x="100.25" y="0" class="st18">.</tspan></text><text class="st9" data-capability="tokenization" transform="translate(220.18 507.21)"><tspan x="0" y="0">T</tspan><tspan x="13.06" y="0" class="st81">OK</tspan><tspan x="46.29" y="0" class="st87">E</tspan><tspan x="60.31" y="0" class="st83">N</tspan><tspan x="77.07" y="0" class="st75">IZ</tspan><tspan x="98.42" y="0" class="st35">A</tspan><tspan x="114.09" y="0" class="st75">TIO</tspan><tspan x="152.13" y="0">N</tspan></text><text class="st9" data-capability="distribution" transform="translate(743.77 507.21)"><tspan x="0" y="0" class="st89">DI</tspan><tspan x="24.37" y="0">S</tspan><tspan x="37.67" y="0" class="st75">TRI</tspan><tspan x="73.53" y="0" style="letter-spacing:0">B</tspan><tspan x="89.53" y="0">U</tspan><tspan x="105.7" y="0" class="st81">T</tspan><tspan x="118.94" y="0" class="st89">IO</tspan><tspan x="143.72" y="0">N</tspan></text><text class="st12" transform="translate(124.87 534.19)"><tspan x="0" y="0" class="st90">The </tspan><tspan x="33.55" y="0" style="letter-spacing:0">f</tspan><tspan x="39.12" y="0" class="st74">a</tspan><tspan x="48.42" y="0" class="st62">c</tspan><tspan x="57.26" y="0" class="st90">ili</tspan><tspan x="70.78" y="0">t</tspan><tspan x="77.18" y="0" class="st74">y i</tspan><tspan x="94.86" y="0" class="st82">s</tspan><tspan xml:space="preserve" x="102.77" y="0" class="st78"> i</tspan><tspan x="111.59" y="0" class="st82">s</tspan><tspan x="119.49" y="0" class="st74">s</tspan><tspan x="127.41" y="0" class="st82">u</tspan><tspan x="137.81" y="0" class="st74">ed as a</tspan><tspan x="193" y="0" class="st82">n</tspan><tspan x="203.47" y="0" class="st74"> </tspan><tspan x="207.78" y="0" class="st82">E</tspan><tspan x="218.02" y="0" class="st74">R</tspan><tspan x="229.19" y="0" class="st82">C</tspan><tspan x="240.29" y="0" class="st45">-</tspan><tspan x="246.04" y="0" class="st74">2</tspan><tspan x="254.97" y="0">0 </tspan></text><path d="M131.97 545.8v-1.51h5.37v1.51zm4.11 6.59c-.88 0-1.57-.23-2.05-.69s-.72-1.13-.72-2.03v-7.22h1.88v7.18c0 .38.1.68.29.89.2.21.47.32.82.32.42 0 .77-.11 1.06-.33l.53 1.34c-.22.18-.49.32-.81.41s-.65.14-1 .14Zm6.86 0c-.82 0-1.56-.18-2.2-.54s-1.15-.85-1.52-1.47-.56-1.33-.56-2.13.19-1.52.56-2.13c.37-.62.88-1.1 1.52-1.46.64-.35 1.38-.53 2.2-.53s1.58.18 2.22.53c.65.35 1.16.83 1.52 1.45.37.61.55 1.33.55 2.14s-.18 1.5-.55 2.13c-.37.62-.87 1.11-1.52 1.47q-.975.54-2.22.54m0-1.61c.46 0 .87-.1 1.24-.3.36-.2.65-.49.85-.87.21-.38.31-.83.31-1.34s-.1-.97-.31-1.35-.49-.67-.85-.87-.77-.3-1.22-.3-.87.1-1.23.3-.64.49-.85.87-.32.83-.32 1.35.11.96.32 1.34.5.67.85.87c.36.2.76.3 1.21.3m6.26 1.5v-11.19h1.88v11.19zm1.53-1.79.05-2.37 4.21-3.89h2.26l-3.57 3.59-1 .83zm4.54 1.79-2.94-3.63 1.19-1.51 4.04 5.14zm7.12.11c-.89 0-1.68-.18-2.34-.54-.67-.36-1.19-.85-1.55-1.47-.37-.62-.55-1.33-.55-2.13s.18-1.52.54-2.13c.36-.62.85-1.1 1.48-1.46.63-.35 1.34-.53 2.15-.53s1.48.17 2.1.51c.61.34 1.1.82 1.45 1.45.35.62.53 1.36.53 2.2v.27c0 .1-.01.2-.02.29h-6.71v-1.25h5.72l-.74.39c0-.46-.09-.87-.29-1.22s-.48-.63-.82-.83q-.525-.3-1.2-.3c-.675 0-.87.1-1.21.3q-.525.3-.81.84c-.2.36-.29.78-.29 1.26v.3c0 .48.11.91.33 1.28s.53.66.93.86.86.3 1.39.3c.45 0 .86-.07 1.22-.21s.68-.36.97-.66l1.01 1.16c-.36.42-.82.75-1.36.97-.55.23-1.17.34-1.88.34Zm10.31-8.25c.64 0 1.22.13 1.73.38s.91.64 1.2 1.15c.29.52.44 1.18.44 2v4.61h-1.88v-4.37c0-.71-.17-1.25-.51-1.6s-.81-.53-1.41-.53c-.44 0-.83.09-1.18.27-.34.18-.61.45-.79.81-.19.36-.28.81-.28 1.35v4.07h-1.88v-8.05h1.79v2.17l-.32-.66c.28-.51.69-.91 1.23-1.18.54-.28 1.16-.41 1.86-.41Zm13.85 8.25c-.82 0-1.56-.18-2.2-.54s-1.15-.85-1.52-1.47-.56-1.33-.56-2.13.19-1.52.56-2.13c.37-.62.88-1.1 1.52-1.46.64-.35 1.38-.53 2.2-.53s1.58.18 2.22.53c.65.35 1.16.83 1.52 1.45.37.61.55 1.33.55 2.14s-.18 1.5-.55 2.13c-.37.62-.87 1.11-1.52 1.47q-.975.54-2.22.54m0-1.61c.46 0 .87-.1 1.24-.3.36-.2.65-.49.85-.87.21-.38.31-.83.31-1.34s-.1-.97-.31-1.35-.49-.67-.85-.87-.77-.3-1.22-.3-.87.1-1.23.3-.64.49-.85.87-.32.83-.32 1.35.11.96.32 1.34.5.67.85.87c.36.2.76.3 1.21.3m10.83-6.64c.64 0 1.22.13 1.73.38s.91.64 1.2 1.15c.29.52.44 1.18.44 2v4.61h-1.88v-4.37c0-.71-.17-1.25-.51-1.6s-.81-.53-1.41-.53c-.44 0-.83.09-1.18.27-.34.18-.61.45-.79.81-.19.36-.28.81-.28 1.35v4.07h-1.88v-8.05h1.79v2.17l-.32-.66c.28-.51.69-.91 1.23-1.18.54-.28 1.16-.41 1.86-.41Zm12.36 6.5h5.96v1.64h-7.92v-10.56h7.71v1.64h-5.75v7.27Zm-.15-4.52h5.25v1.61h-5.25zm7.04-.32v-1.51H222v1.51zm4.1 6.59c-.88 0-1.57-.23-2.05-.69s-.72-1.13-.72-2.03v-7.22h1.88v7.18c0 .38.1.68.29.89s.47.32.82.32c.42 0 .77-.11 1.06-.33l.53 1.34c-.22.18-.49.32-.81.41s-.65.14-1 .14Zm8.09-8.25c.64 0 1.22.13 1.73.38s.91.64 1.2 1.15c.29.52.44 1.18.44 2v4.61h-1.88v-4.37c0-.71-.17-1.25-.51-1.6s-.81-.53-1.41-.53c-.44 0-.83.09-1.18.27-.34.18-.61.45-.79.81-.19.36-.28.81-.28 1.35v4.07h-1.88v-11.19h1.88v5.31l-.41-.66c.28-.51.69-.91 1.23-1.18.54-.28 1.16-.41 1.86-.41Zm9.71 8.25c-.89 0-1.68-.18-2.34-.54-.67-.36-1.19-.85-1.55-1.47-.37-.62-.55-1.33-.55-2.13s.18-1.52.54-2.13c.36-.62.85-1.1 1.48-1.46.63-.35 1.34-.53 2.15-.53s1.48.17 2.1.51c.61.34 1.1.82 1.45 1.45.35.62.53 1.36.53 2.2v.27c0 .1-.01.2-.02.29h-6.71v-1.25h5.72l-.74.39c0-.46-.09-.87-.29-1.22s-.48-.63-.82-.83q-.525-.3-1.2-.3c-.675 0-.87.1-1.21.3q-.525.3-.81.84c-.2.36-.29.78-.29 1.26v.3c0 .48.11.91.33 1.28s.53.66.93.86.86.3 1.39.3c.45 0 .86-.07 1.22-.21s.68-.36.97-.66l1.01 1.16c-.36.42-.82.75-1.36.97-.55.23-1.17.34-1.88.34Zm5.74-.11v-8.05h1.79v2.22l-.21-.65c.24-.54.62-.95 1.14-1.24.52-.28 1.16-.42 1.94-.42v1.79c-.08-.02-.16-.03-.23-.04h-.21c-.71 0-1.28.21-1.7.63q-.63.63-.63 1.86v3.91h-1.88Zm10.12.11c-.89 0-1.68-.18-2.34-.54-.67-.36-1.19-.85-1.55-1.47-.37-.62-.55-1.33-.55-2.13s.18-1.52.54-2.13c.36-.62.85-1.1 1.48-1.46.63-.35 1.34-.53 2.15-.53s1.48.17 2.1.51c.61.34 1.1.82 1.45 1.45.35.62.53 1.36.53 2.2v.27c0 .1-.01.2-.02.29h-6.71v-1.25h5.72l-.74.39c0-.46-.09-.87-.29-1.22s-.48-.63-.82-.83q-.525-.3-1.2-.3c-.675 0-.87.1-1.21.3q-.525.3-.81.84c-.2.36-.29.78-.29 1.26v.3c0 .48.11.91.33 1.28s.53.66.93.86.86.3 1.39.3c.45 0 .86-.07 1.22-.21s.68-.36.97-.66l1.01 1.16c-.36.42-.82.75-1.36.97-.55.23-1.17.34-1.88.34Zm9.15 0c-.68 0-1.29-.13-1.81-.38-.52-.26-.93-.65-1.22-1.18s-.44-1.19-.44-2v-4.6h1.88v4.34c0 .72.16 1.26.49 1.62s.79.54 1.39.54c.44 0 .83-.09 1.15-.27.33-.18.58-.45.77-.81s.28-.81.28-1.34v-4.07h1.88v8.05h-1.79v-2.17l.32.66c-.27.52-.67.92-1.19 1.2s-1.1.41-1.72.41Zm17.18-8.25c.64 0 1.21.13 1.71.38s.89.64 1.17 1.15c.28.52.42 1.18.42 2v4.61h-1.88v-4.37c0-.71-.16-1.25-.47-1.6s-.76-.53-1.34-.53c-.41 0-.78.09-1.09.27-.32.18-.56.45-.74.8s-.26.8-.26 1.34v4.09h-1.88v-4.37c0-.71-.16-1.25-.47-1.6s-.76-.53-1.34-.53c-.41 0-.78.09-1.09.27s-.56.45-.74.8-.26.8-.26 1.34v4.09h-1.88v-8.05h1.79v2.14l-.32-.63c.27-.52.67-.92 1.18-1.19.52-.27 1.11-.41 1.77-.41.75 0 1.41.19 1.97.56s.93.93 1.11 1.69l-.74-.26c.26-.6.69-1.09 1.3-1.45q.9-.54 2.1-.54Zm11.96 8.14-2.96-8.05h1.78l2.53 7.1h-.84l2.65-7.1h1.58l2.58 7.1h-.83l2.61-7.1h1.67l-2.97 8.05h-1.81l-2.35-6.29h.56l-2.4 6.29h-1.81Zm13.18-9.38q-.525 0-.87-.33c-.23-.22-.34-.49-.34-.8s.11-.59.34-.81.52-.32.87-.32.64.1.87.31.34.47.34.78q0 .495-.33.84c-.22.23-.51.34-.87.34Zm-.95 9.38v-8.05h1.88v8.05zm3.44-6.48v-1.51h5.37v1.51zm4.1 6.59c-.88 0-1.57-.23-2.05-.69s-.72-1.13-.72-2.03v-7.22h1.88v7.18c0 .38.1.68.29.89s.47.32.82.32c.42 0 .77-.11 1.06-.33l.53 1.34c-.22.18-.49.32-.81.41s-.65.14-1 .14Zm8.08-8.25c.64 0 1.22.13 1.73.38s.91.64 1.2 1.15c.29.52.44 1.18.44 2v4.61h-1.88v-4.37c0-.71-.17-1.25-.51-1.6s-.81-.53-1.41-.53c-.44 0-.83.09-1.18.27-.34.18-.61.45-.79.81-.19.36-.28.81-.28 1.35v4.07h-1.88v-11.19h1.88v5.31l-.41-.66c.28-.51.69-.91 1.23-1.18.54-.28 1.16-.41 1.86-.41Zm13.63 8.25c-.77 0-1.47-.17-2.09-.52s-1.1-.83-1.46-1.44c-.35-.61-.53-1.34-.53-2.17s.18-1.56.53-2.17.84-1.09 1.46-1.43 1.31-.51 2.09-.51c.67 0 1.28.15 1.81.44.53.3.95.75 1.27 1.35.31.6.47 1.38.47 2.32s-.15 1.71-.45 2.31c-.3.61-.72 1.06-1.25 1.36s-1.15.45-1.84.45Zm.23-1.61c.45 0 .86-.1 1.21-.3.36-.2.64-.49.86-.87s.32-.83.32-1.34-.11-.97-.32-1.35c-.22-.38-.5-.67-.86-.87s-.76-.3-1.21-.3-.86.1-1.21.3c-.36.2-.64.49-.86.87s-.32.83-.32 1.35.11.96.32 1.34c.22.38.5.67.86.87s.76.3 1.21.3m2.44 1.5v-1.9l.08-2.14-.15-2.14v-5.01h1.87v11.19h-1.79Zm8.22.11c-.89 0-1.68-.18-2.34-.54-.67-.36-1.19-.85-1.55-1.47-.37-.62-.55-1.33-.55-2.13s.18-1.52.54-2.13c.36-.62.85-1.1 1.48-1.46.63-.35 1.34-.53 2.15-.53s1.48.17 2.1.51c.61.34 1.1.82 1.45 1.45.35.62.53 1.36.53 2.2v.27c0 .1-.01.2-.02.29h-6.71v-1.25h5.72l-.74.39c0-.46-.09-.87-.29-1.22s-.48-.63-.82-.83q-.525-.3-1.2-.3c-.675 0-.87.1-1.21.3q-.525.3-.81.84c-.2.36-.29.78-.29 1.26v.3c0 .48.11.91.33 1.28s.53.66.93.86.86.3 1.39.3c.45 0 .86-.07 1.22-.21s.68-.36.97-.66l1.01 1.16c-.36.42-.82.75-1.36.97-.55.23-1.17.34-1.88.34Zm4.68-6.59v-1.51h5.37v1.51zm1.32 6.48v-8.51c0-.84.25-1.52.75-2.03s1.21-.76 2.13-.76c.33 0 .65.04.94.11q.45.105.75.33l-.51 1.42c-.14-.11-.3-.19-.48-.25s-.37-.08-.56-.08c-.39 0-.69.11-.89.32-.2.22-.3.54-.3.97v.9l.06.84v6.73h-1.89Zm6.32-9.38q-.525 0-.87-.33c-.23-.22-.34-.49-.34-.8s.11-.59.34-.81.52-.32.87-.32.64.1.87.31.34.47.34.78q0 .495-.33.84c-.22.23-.51.34-.87.34Zm-.95 9.38v-8.05h1.88v8.05zm9.08-8.14c.64 0 1.22.13 1.73.38s.91.64 1.2 1.15c.29.52.44 1.18.44 2v4.61h-1.88v-4.37c0-.71-.17-1.25-.51-1.6s-.81-.53-1.41-.53c-.44 0-.83.09-1.18.27-.34.18-.61.45-.79.81-.19.36-.28.81-.28 1.35v4.07h-1.88v-8.05h1.79v2.17l-.32-.66c.28-.51.69-.91 1.23-1.18.54-.28 1.16-.41 1.86-.41Zm9.71 8.25c-.89 0-1.68-.18-2.34-.54-.67-.36-1.19-.85-1.55-1.47-.37-.62-.55-1.33-.55-2.13s.18-1.52.54-2.13c.36-.62.85-1.1 1.48-1.46.63-.35 1.34-.53 2.15-.53s1.48.17 2.1.51c.61.34 1.1.82 1.45 1.45.35.62.53 1.36.53 2.2v.27c0 .1-.01.2-.02.29h-6.71v-1.25h5.72l-.74.39c0-.46-.09-.87-.29-1.22s-.48-.63-.82-.83q-.525-.3-1.2-.3c-.675 0-.87.1-1.21.3q-.525.3-.81.84c-.2.36-.29.78-.29 1.26v.3c0 .48.11.91.33 1.28s.53.66.93.86.86.3 1.39.3c.45 0 .86-.07 1.22-.21s.68-.36.97-.66l1.01 1.16c-.36.42-.82.75-1.36.97-.55.23-1.17.34-1.88.34Zm9.15 0c-.77 0-1.47-.17-2.09-.52s-1.1-.83-1.46-1.44c-.35-.61-.53-1.34-.53-2.17s.18-1.56.53-2.17.84-1.09 1.46-1.43 1.31-.51 2.09-.51c.67 0 1.28.15 1.81.44.53.3.95.75 1.27 1.35.31.6.47 1.38.47 2.32s-.15 1.71-.45 2.31c-.3.61-.72 1.06-1.25 1.36s-1.15.45-1.84.45Zm.23-1.61c.45 0 .86-.1 1.21-.3.36-.2.64-.49.86-.87s.32-.83.32-1.34-.11-.97-.32-1.35c-.22-.38-.5-.67-.86-.87s-.76-.3-1.21-.3-.86.1-1.21.3c-.36.2-.64.49-.86.87s-.32.83-.32 1.35.11.96.32 1.34c.22.38.5.67.86.87s.76.3 1.21.3m2.44 1.5v-1.9l.08-2.14-.15-2.14v-5.01h1.87v11.19h-1.79Z" style="fill:#8dcfe1"/><text class="st12" transform="translate(241.56 570.38)"><tspan x="0" y="0" class="st74">yiel</tspan><tspan x="27.41" y="0" class="st82">d</tspan><tspan xml:space="preserve" x="37.91" y="0" class="st74"> an</tspan><tspan x="62.01" y="0" class="st86">d</tspan><tspan xml:space="preserve" x="72.5" y="0" class="st78"> ma</tspan><tspan x="102.15" y="0" style="letter-spacing:0">tu</tspan><tspan x="119.08" y="0" class="st66">r</tspan><tspan x="125.48" y="0" class="st74">i</tspan><tspan x="129.99" y="0">t</tspan><tspan x="136.38" y="0" style="letter-spacing:-.02em">y</tspan><tspan x="144.76" y="0">.</tspan></text><text class="st12" transform="translate(748.26 534.19)"><tspan x="0" y="0" class="st82">P</tspan><tspan x="11.08" y="0" class="st78">l</tspan><tspan x="15.59" y="0" class="st70">a</tspan><tspan x="24.91" y="0" style="letter-spacing:0">c</tspan><tspan x="33.7" y="0" class="st80">e</tspan><tspan x="43.22" y="0" class="st78">d wi</tspan><tspan x="76.56" y="0" class="st82">t</tspan><tspan x="83.09" y="0" class="st90">h s</tspan><tspan x="105.8" y="0" class="st82">t</tspan><tspan x="112.33" y="0" class="st90">able</tspan><tspan x="146.17" y="0" style="letter-spacing:0">c</tspan><tspan x="154.96" y="0" class="st90">oin i</tspan><tspan x="188.65" y="0" class="st82">s</tspan><tspan x="196.55" y="0" class="st78">s</tspan><tspan x="204.46" y="0" class="st82">u</tspan><tspan x="214.87" y="0" class="st90">er</tspan><tspan x="230.88" y="0" class="st71">s</tspan><tspan x="238.79" y="0" class="st18">, </tspan></text><text class="st12" transform="translate(748.26 552.29)"><tspan x="0" y="0">DA</tspan><tspan x="23.75" y="0" class="st82">O</tspan><tspan x="36.58" y="0" class="st90"> </tspan><tspan x="40.9" y="0" class="st71">t</tspan><tspan x="47.43" y="0" class="st18">r</tspan><tspan x="53.76" y="0" class="st45">e</tspan><tspan x="63.08" y="0" class="st82">as</tspan><tspan x="80.27" y="0" class="st90">u</tspan><tspan x="90.69" y="0" class="st67">r</tspan><tspan x="97.08" y="0" class="st78">i</tspan><tspan x="101.59" y="0" class="st82">e</tspan><tspan x="111.11" y="0" class="st90">s </tspan><tspan x="123.34" y="0" class="st82">a</tspan><tspan x="132.63" y="0" class="st70">n</tspan><tspan x="143.12" y="0" class="st82">d</tspan><tspan xml:space="preserve" x="153.62" y="0" class="st90"> in</tspan><tspan x="172.92" y="0" class="st71">s</tspan><tspan x="180.82" y="0" class="st90">tit</tspan><tspan x="198.42" y="0" class="st82">u</tspan><tspan x="208.82" y="0" class="st90">tio</tspan><tspan x="229.75" y="0" class="st82">n</tspan><tspan x="240.22" y="0" class="st90">a</tspan><tspan x="249.52" y="0" style="letter-spacing:0">l </tspan></text><text class="st12" transform="translate(748.26 570.38)"><tspan x="0" y="0" class="st78">i</tspan><tspan x="4.51" y="0" class="st18">n</tspan><tspan x="14.84" y="0" style="letter-spacing:0">v</tspan><tspan x="23.49" y="0" class="st80">es</tspan><tspan x="40.91" y="0" class="st52">t</tspan><tspan x="47.2" y="0" class="st90">ors o</tspan><tspan x="85.67" y="0" class="st82">n</tspan><tspan x="96.13" y="0" style="letter-spacing:.02em">-</tspan><tspan x="102.24" y="0" class="st67">c</tspan><tspan x="111.06" y="0" class="st90">h</tspan><tspan x="121.54" y="0" class="st82">a</tspan><tspan x="130.83" y="0" class="st78">i</tspan><tspan x="135.34" y="0" class="st80">n</tspan><tspan x="145.8" y="0">.</tspan></text><text class="st16" transform="translate(371.8 227.83)"><tspan x="0" y="0" class="st77">0</tspan><tspan x="8.57" y="0">1</tspan></text><text class="st16" transform="translate(745.26 229.32)"><tspan x="0" y="0" class="st77">0</tspan><tspan x="8.57" y="0">2</tspan></text><text class="st16" transform="translate(745.26 462.48)"><tspan x="0" y="0" class="st77">0</tspan><tspan x="8.57" y="0">4</tspan></text><text class="st16" transform="translate(371.47 462.48)"><tspan x="0" y="0">03</tspan></text><path d="M567.39 536.47c66.9 0 121.14-54.23 121.14-121.14s-54.24-121.14-121.14-121.14-121.14 54.23-121.14 121.14 54.24 121.14 121.14 121.14" style="fill:#619ead"/><text class="st8" transform="translate(522.81 477.56)"><tspan x="0" y="0" class="st85">O</tspan><tspan x="10.42" y="0" style="letter-spacing:0">r</tspan><tspan x="15.76" y="0" class="st85">i</tspan><tspan x="19.54" y="0" style="letter-spacing:.01em">gina</tspan><tspan x="48.24" y="0" style="letter-spacing:0">t</tspan><tspan x="53.48" y="0" class="st72">e</tspan><tspan xml:space="preserve" x="61.29" y="0" class="st88"> · </tspan><tspan x="72.26" y="0" style="letter-spacing:-.03em">r</tspan><tspan x="77.17" y="0" class="st88">a</tspan><tspan x="84.83" y="0" style="letter-spacing:0">t</tspan><tspan x="90.06" y="0" style="letter-spacing:0">e </tspan></text><text class="st8" transform="translate(506.48 492.23)"><tspan x="0" y="0" style="letter-spacing:0">t</tspan><tspan x="5.23" y="0" class="st88">o</tspan><tspan x="13.35" y="0" style="letter-spacing:-.01em">k</tspan><tspan x="21.27" y="0" class="st85">e</tspan><tspan x="29.08" y="0" class="st88">ni</tspan><tspan x="41.44" y="0" style="letter-spacing:0">z</tspan><tspan x="48.1" y="0" class="st72">e</tspan><tspan xml:space="preserve" x="55.92" y="0" class="st88"> · d</tspan><tspan x="75.46" y="0" style="letter-spacing:0">i</tspan><tspan x="79.25" y="0" class="st88">st</tspan><tspan x="91.29" y="0" style="letter-spacing:0">r</tspan><tspan x="96.62" y="0" class="st88">ibu</tspan><tspan x="117.48" y="0" style="letter-spacing:0">t</tspan><tspan x="122.71" y="0">e</tspan></text><path d="M525.11 391.56v12.27c0 1.5.36 2.57 1.07 3.21s1.73.97 3.05.97c.64 0 1.28-.06 1.9-.19.62-.12 1.05-.24 1.26-.35l.05 5.95c-.32.14-.89.31-1.69.51-.8.19-1.78.3-2.92.3q-4.56 0-7.23-2.22c-1.79-1.48-2.68-3.74-2.68-6.78v-13.66h-5.09v-6.48h5.09v-7.23h7.18v7.23h7.82v6.48h-7.82Zm26.52 15.8c2.32 0 4.19-.73 5.6-2.2s2.12-3.43 2.12-5.89-.71-4.43-2.12-5.89-3.27-2.19-5.6-2.19-4.18.73-5.6 2.19c-1.41 1.46-2.11 3.43-2.11 5.89s.7 4.43 2.11 5.89 3.28 2.2 5.6 2.2m0 6.86c-2.21 0-4.25-.35-6.11-1.07-1.86-.71-3.45-1.72-4.79-3.02s-2.38-2.88-3.13-4.72-1.13-3.89-1.13-6.13.38-4.29 1.13-6.13 1.79-3.41 3.13-4.72c1.34-1.3 2.94-2.31 4.79-3.02 1.86-.71 3.89-1.07 6.11-1.07s4.25.36 6.11 1.07 3.45 1.73 4.8 3.02c1.34 1.31 2.38 2.88 3.13 4.72s1.13 3.89 1.13 6.13-.38 4.29-1.13 6.13-1.79 3.41-3.13 4.72c-1.34 1.3-2.94 2.31-4.8 3.02-1.86.72-3.89 1.07-6.11 1.07m20.52-.75v-42.86h7.28v25.02l9.96-10.55h10.24l-12.43 11.94 13.82 16.45h-9.53l-9.16-11.79-2.9 2.79v9z" class="st10"/><path d="M621.77 396.39c-.19-2.05-.88-3.59-2.08-4.64-1.21-1.04-2.82-1.57-4.82-1.57-2.01 0-3.64.53-4.89 1.6s-1.97 2.59-2.17 4.57l13.96.05Zm-6.47 17.91c-2.27 0-4.35-.36-6.24-1.07s-3.51-1.72-4.87-3.03-2.43-2.89-3.19-4.75c-.77-1.85-1.15-3.93-1.14-6.23 0-2.29.41-4.37 1.21-6.21s1.89-3.42 3.28-4.73q2.085-1.95 4.86-3c1.86-.69 3.83-1.04 5.91-1.03 2.01 0 3.9.35 5.67 1.01 1.78.67 3.32 1.65 4.64 2.95s2.37 2.88 3.13 4.75q1.155 2.805 1.14 6.36c0 .5-.03 1-.09 1.48s-.13.81-.2 1l-21.74-.07c.18 2.08.92 3.71 2.23 4.88 1.3 1.17 3.09 1.76 5.36 1.77 1.13 0 2.11-.1 2.92-.31.81-.22 1.48-.51 2.02-.88.53-.38.97-.8 1.31-1.26.34-.47.59-.93.74-1.4l7.21.03q-.345 1.83-1.29 3.6c-.62 1.18-1.51 2.23-2.65 3.14-1.13.92-2.55 1.65-4.24 2.2s-3.68.82-5.99.81m19.16-29.23h6v6.16c.78-2.43 2.1-4.18 3.94-5.28 1.84-1.09 3.95-1.63 6.35-1.63 1.78 0 3.35.29 4.68.86 1.34.57 2.48 1.33 3.4 2.28.93.94 1.62 2.03 2.09 3.24.46 1.21.7 2.48.7 3.8v18.96h-7.29v-16.6c0-1.82-.51-3.22-1.53-4.21-1.02-.98-2.45-1.47-4.31-1.47-2 0-3.62.58-4.88 1.74-1.25 1.16-1.87 2.72-1.87 4.69v15.85h-7.28z" class="st10"/><path d="M634.14 385.03h7.63v28.44h-7.63zm-151.82 18.48 6.93 3.8h10.86v-14.27l-4.12-2.29v-7.41l11.05 5.96v21.12c0 2.19-1.77 3.96-3.96 3.96h-16.76c-2.18 0-3.95-1.76-3.96-3.94l-.03-6.94Z" class="st10"/><path d="m507.03 381.6-6.93-3.8h-10.86v14.27l4.12 2.29v7.41l-11.05-5.96v-21.12c0-2.19 1.77-3.96 3.96-3.96h16.76c2.18 0 3.95 1.76 3.96 3.94l.03 6.94Z" class="st10"/><text style="font-size:27.24px;font-weight:700;font-family:Montserrat-ExtraBold,Montserrat;fill:#f9f5e5" transform="translate(492.04 445.79)"><tspan x="0" y="0" style="letter-spacing:0">P</tspan><tspan x="19.83" y="0" style="letter-spacing:0">L</tspan><tspan x="36.63" y="0" style="letter-spacing:-.03em">A</tspan><tspan x="57.12" y="0" style="letter-spacing:0">T</tspan><tspan x="74.41" y="0" style="letter-spacing:0">F</tspan><tspan x="91.73" y="0" style="letter-spacing:0">ORM</tspan></text></g></g></svg>