<svg xmlns="http://www.w3.org/2000/svg" viewBox="0 0 175.86 67.69">
  <path d="M52.72,21.87h-5.67v5.72h-4.02v5.12h4.02v10.8c0,2.4.71,4.19,2.12,5.36,1.41,1.17,3.32,1.76,5.72,1.76.9,0,1.67-.08,2.31-.23.64-.16,1.08-.29,1.33-.4l-.04-4.7c-.17.09-.5.18-1,.28-.49.1-1,.15-1.5.15-1.04,0-1.85-.25-2.41-.76-.57-.51-.85-1.36-.85-2.54v-9.7h6.18v-5.12h-6.18v-5.72Z" fill="#1b2f52"/>
  <path d="M82.3,30.23c-1.06-1.03-2.32-1.83-3.79-2.39-1.47-.56-3.08-.85-4.83-.85s-3.36.28-4.83.85c-1.47.57-2.73,1.36-3.79,2.39-1.06,1.03-1.88,2.27-2.48,3.73-.59,1.45-.89,3.07-.89,4.85s.3,3.4.89,4.85c.59,1.45,1.42,2.7,2.48,3.73,1.06,1.03,2.32,1.83,3.79,2.39,1.47.56,3.08.85,4.83.85s3.36-.28,4.83-.85c1.47-.57,2.73-1.36,3.79-2.39,1.06-1.03,1.88-2.27,2.48-3.73.59-1.45.89-3.07.89-4.85s-.29-3.39-.89-4.85c-.59-1.45-1.42-2.7-2.48-3.73ZM78.11,43.47c-1.11,1.16-2.59,1.74-4.43,1.74s-3.31-.58-4.43-1.74c-1.11-1.16-1.67-2.71-1.67-4.66s.56-3.5,1.67-4.66c1.12-1.16,2.59-1.74,4.43-1.74s3.31.58,4.43,1.74c1.11,1.16,1.67,2.71,1.67,4.66s-.56,3.5-1.67,4.66Z" fill="#1b2f52"/>
  <polygon points="111.62 27.59 103.54 27.59 95.66 35.93 95.66 16.15 89.9 16.15 89.9 50.03 95.66 50.03 95.66 42.92 97.95 40.72 105.19 50.03 112.73 50.03 101.8 37.03 111.62 27.59" fill="#1b2f52"/>
  <path d="M132.02,30.07c-1.04-1.02-2.27-1.8-3.67-2.33-1.4-.53-2.9-.8-4.49-.8-1.64,0-3.2.27-4.67.82-1.47.55-2.75,1.34-3.84,2.37-1.1,1.03-1.96,2.28-2.59,3.74-.63,1.46-.95,3.1-.96,4.91,0,1.82.3,3.46.91,4.92.61,1.46,1.45,2.71,2.52,3.75,1.07,1.04,2.36,1.84,3.85,2.4,1.49.56,3.14.84,4.93.84,1.82,0,3.4-.21,4.74-.64,1.33-.44,2.45-1.01,3.35-1.74.9-.72,1.6-1.55,2.09-2.48.5-.93.84-1.88,1.02-2.85l-5.7-.02c-.12.37-.32.74-.59,1.11-.27.37-.62.7-1.04,1-.42.3-.95.53-1.6.7-.64.17-1.41.25-2.31.25-1.79,0-3.21-.47-4.24-1.4-1.03-.93-1.61-2.21-1.76-3.86l17.19.05c.06-.14.11-.4.16-.79.05-.38.07-.77.07-1.17,0-1.87-.3-3.55-.9-5.03-.61-1.48-1.43-2.73-2.48-3.75ZM118.09,36.5c.15-1.56.73-2.76,1.72-3.61.99-.85,2.28-1.27,3.86-1.26,1.58,0,2.86.42,3.81,1.25.95.83,1.5,2.05,1.65,3.67l-11.04-.03Z" fill="#1b2f52"/>
  <path d="M160.07,32.04c-.37-.96-.92-1.81-1.65-2.56s-1.63-1.35-2.69-1.8c-1.06-.45-2.29-.68-3.7-.68-1.89,0-3.57.43-5.02,1.29-.83.49-1.51,1.15-2.07,1.98v-2.72h-6.03v22.48h.25s5.76,0,5.76,0h0s.03,0,.03,0v-13.14c.11-1.27.6-2.3,1.45-3.1.99-.92,2.27-1.38,3.85-1.38,1.47,0,2.6.39,3.41,1.16.81.78,1.21,1.88,1.21,3.32v13.13h5.76v-14.99c0-1.04-.18-2.05-.55-3.01Z" fill="#1b2f52"/>
  <path d="M29.69,32.07l3.26,1.81v11.28h-8.59l-5.47-3.01.03,5.49c0,1.72,1.41,3.12,3.13,3.12h13.25c1.73,0,3.13-1.4,3.13-3.13v-16.7l-8.73-4.71v5.85Z" fill="#1b2f52"/>
  <path d="M35.27,16.24h-13.25c-1.73,0-3.13,1.4-3.13,3.13v16.7l8.73,4.71v-5.85l-3.26-1.81v-11.28h8.59l5.47,3.01-.03-5.49c0-1.72-1.41-3.12-3.13-3.12Z" fill="#1b2f52"/>
</svg>